{"title":"Chvrches.Coachella.Valley.Music.Fest.(2014-04-19)","uid":10978197,"size":1456570524,"categoryP":"video","categoryS":"music_videos","magnet":"?xt=urn:btih:6d4646c752cd2c65918b44b67f25e0848062d52b&amp;dn=Chvrches.Coachella.Valley.Music.Fest.%282014-04-19%29&amp;tr=udp%3A%2F%2Ftracker.openbittorrent.com%3A80&amp;tr=udp%3A%2F%2Fopen.demonii.com%3A1337&amp;tr=udp%3A%2F%2Ftracker.coppersurfer.tk%3A6969&amp;tr=udp%3A%2F%2Fexodus.desync.com%3A6969","seeders":1,"leechers":0,"uploader":"user101966","files":2,"time":1409844473,"description":"This (incomplete) set, by a band I had hitherto never heard of, and would probably never have heard of until I downloaded a single day's coverage (26 Gigs) of the yearly Coachella Valley music festival via the only means available to me (ie. torrent), to my surprise, I actually liked!\n\nThe set includes the following songs:\n------------------------------------\n1. We Sink\n2. Recover\n3. Tether\n4. Under The Tide\n5. Mother We Share\n\nWhereas the complete set for that concert actually includes 4 or 5 additional songs.\n\nThe video is a 1080p NTSC AVI with the following details:\n---------------------------------------------------------\nGeneral\nComplete name                            : Chvrches.avi\nFormat                                   : AVI\nFormat/Info                              : Audio Video Interleave\nFile size                                : 1.36 GiB\nDuration                                 : 21mn 47s\nOverall bit rate mode                    : Variable\nOverall bit rate                         : 8 909 Kbps\n\nVideo\nID                                       : 0\nFormat                                   : MPEG Video\nFormat version                           : Version 2\nFormat profile                           : Main@High\nFormat settings, BVOP                    : Yes\nFormat settings, Matrix                  : Custom\nFormat settings, GOP                     : Variable\nCodec ID                                 : MPEG\nCodec ID/Info                            : Chromatic MPEG 1 Video I Frame\nDuration                                 : 21mn 47s\nBit rate mode                            : Variable\nBit rate                                 : 8 511 Kbps\nMaximum bit rate                         : 20.0 Mbps\nWidth                                    : 1 920 pixels\nHeight                                   : 1 080 pixels\nDisplay aspect ratio                     : 16:9\nFrame rate                               : 29.970 fps\nColor space                              : YUV\nChroma subsampling                       : 4:2:0\nBit depth                                : 8 bits\nCompression mode                         : Lossy\nBits/(Pixel*Frame)                       : 0.137\nStream size                              : 1.30 GiB (96%)\n\nAudio\nID                                       : 1\nFormat                                   : AC-3\nFormat/Info                              : Audio Coding 3\nMode extension                           : CM (complete main)\nFormat settings, Endianness              : Big\nCodec ID                                 : 2000\nDuration                                 : 21mn 47s\nBit rate mode                            : Constant\nBit rate                                 : 384 Kbps\nChannel(s)                               : 6 channels\nChannel positions                        : Front: L C R, Side: L R, LFE\nSampling rate                            : 48.0 KHz\nBit depth                                : 16 bits\nCompression mode                         : Lossy\nStream size                              : 59.9 MiB (4%)\nAlignment                                : Aligned on interleaves\nInterleave, duration                     : 32 ms (0.96 video frame)\n\n------------------------------------------------------------\n\nOn my machine the picture becomes pixelated a points (typically when the bitrate exceeds 10 Mbps) but that's because I have a low-end machine. A high-end machine with a powerful video card with oodles of VRAM should be able to render this video perfectly from beginning to end.\n\n- Me","torrent":{"xt":"urn:btih:6d4646c752cd2c65918b44b67f25e0848062d52b","amp;dn":"Chvrches.Coachella.Valley.Music.Fest.%282014-04-19%29","amp;tr":["udp%3A%2F%2Ftracker.openbittorrent.com%3A80","udp%3A%2F%2Fopen.demonii.com%3A1337","udp%3A%2F%2Ftracker.coppersurfer.tk%3A6969","udp%3A%2F%2Fexodus.desync.com%3A6969"],"infoHash":"6d4646c752cd2c65918b44b67f25e0848062d52b","infoHashBuffer":{"type":"Buffer","data":[109,70,70,199,82,205,44,101,145,139,68,182,127,37,224,132,128,98,213,43]},"announce":[],"urlList":[]}}